<svg height="512" viewBox="0 0 64 64" width="512" xmlns="http://www.w3.org/2000/svg"><g id="virus-covid19-corona-lung-coronavirus"><g fill="none"><path d="m45 39a2.014 2.014 0 0 0 -.383.039 10.994 10.994 0 0 1 1.172.124 1.992 1.992 0 0 0 -.789-.163z"/><path d="m54 44a2 2 0 1 0 -2-2 1.975 1.975 0 0 0 .093.573 11.039 11.039 0 0 1 .95 1.173 1.974 1.974 0 0 0 .957.254z"/><circle cx="50" cy="23" r="2"/><circle cx="53" cy="30" r="2"/><circle cx="14" cy="23" r="2"/><circle cx="10" cy="42" r="2"/><circle cx="11" cy="30" r="2"/><circle cx="19" cy="41" r="2"/><circle cx="50" cy="23" r="2"/><circle cx="53" cy="30" r="2"/></g><path d="m22 30.109a1.789 1.789 0 0 1 .99-1.6l3.01-1.509v-9a4 4 0 0 0 -4-4h-.79a16 16 0 0 0 -15.89 14.11l-2.33 19.61a6 6 0 0 0 7.18 6.58l6.28-1.31a12 12 0 0 0 9.55-11.75v-10.232l-1.412.7a1.79 1.79 0 0 1 -2.588-1.599zm-12 13.891a2 2 0 1 1 2-2 2 2 0 0 1 -2 2zm1-12a2 2 0 1 1 2-2 2 2 0 0 1 -2 2zm3-7a2 2 0 1 1 2-2 2 2 0 0 1 -2 2zm5 18a2 2 0 1 1 2-2 2 2 0 0 1 -2 2z" fill="#9bc9ff"/><path d="m61.01 47.72-2.33-19.61a16 16 0 0 0 -15.89-14.11h-.79a4 4 0 0 0 -4 4v9l3.012 1.506a1.787 1.787 0 1 1 -1.6 3.2l-1.412-.714v9.795a10.945 10.945 0 0 1 6-1.787c.209 0 .411.027.617.039a2.014 2.014 0 0 1 .383-.039 1.992 1.992 0 0 1 .789.163 10.959 10.959 0 0 1 6.3 3.41 1.975 1.975 0 0 1 -.089-.573 2 2 0 1 1 2 2 1.974 1.974 0 0 1 -.957-.254c.006.009.013.016.019.025a10.989 10.989 0 0 1 1.046 10.569 5.988 5.988 0 0 0 6.902-6.62zm-13.01-24.72a2 2 0 1 1 2 2 2 2 0 0 1 -2-2zm5 9a2 2 0 1 1 2-2 2 2 0 0 1 -2 2z" fill="#9bc9ff"/><path d="m53.043 43.746a11.039 11.039 0 0 0 -.95-1.173 1.989 1.989 0 0 0 .95 1.173z" fill="#9bc9ff"/><path d="m49.586 8.414a2 2 0 1 0 -.586-1.414 1.994 1.994 0 0 0 .586 1.414z" fill="#9bc9ff"/><path d="m11.586 8.414a2 2 0 1 0 -.586-1.414 1.994 1.994 0 0 0 .586 1.414z" fill="#9bc9ff"/><path d="m24.586 58.414a2 2 0 1 0 -.586-1.414 1.994 1.994 0 0 0 .586 1.414z" fill="#9bc9ff"/><path d="m19 45a1 1 0 0 0 -1 1v1a1 1 0 0 0 2 0v-1a1 1 0 0 0 -1-1z" fill="#1e81ce"/><path d="m21 22a1 1 0 0 0 1-1v-1a1 1 0 0 0 -2 0v1a1 1 0 0 0 1 1z" fill="#1e81ce"/><path d="m43 19a1 1 0 0 0 -1 1v1a1 1 0 0 0 2 0v-1a1 1 0 0 0 -1-1z" fill="#1e81ce"/><path d="m9 47h-1a1 1 0 0 0 0 2h1a1 1 0 0 0 0-2z" fill="#1e81ce"/><path d="m14 46a1 1 0 0 0 -1 1v1a1 1 0 0 0 2 0v-1a1 1 0 0 0 -1-1z" fill="#1e81ce"/><path d="m62 47.6-2.33-19.61a17 17 0 0 0 -16.88-14.99h-.79a5 5 0 0 0 -5 5v7.38l-2-1v-19.38a3 3 0 0 0 -6 0v19.38l-2 1v-7.38a5 5 0 0 0 -5-5h-.79a17 17 0 0 0 -16.88 14.99l-2.33 19.61a6.987 6.987 0 0 0 6.92 7.83 7.14 7.14 0 0 0 1.45-.15l6.28-1.31a13.06 13.06 0 0 0 10.35-12.73v-9.61l5.04-2.51 4.96 2.49v8.66a11.989 11.989 0 1 0 17.7 15.13c.13 0 .25.03.37.03a7 7 0 0 0 6.93-7.83zm-37-6.36a11.05 11.05 0 0 1 -8.75 10.77l-6.28 1.31a5.006 5.006 0 0 1 -5.99-5.48l2.33-19.61a15.02 15.02 0 0 1 14.9-13.23h.79a3.009 3.009 0 0 1 3 3v8.38l-2.46 1.23a2.707 2.707 0 0 0 -1.28 1.39h-1.75l-.87-1.22 2.91-1.95a1 1 0 0 0 -1.1-1.66l-2.97 1.98-1.03-1.43a2.938 2.938 0 0 0 .55-1.72 3 3 0 1 0 -3 3 2.76 2.76 0 0 0 .82-.13l2.24 3.13h-3.06a.526.526 0 0 0 -.17.04 3 3 0 1 0 0 1.92.526.526 0 0 0 .17.04h3l-3 4h-4a1 1 0 0 0 0 2h2.5l-1.61 2.15a2.914 2.914 0 0 0 -.89-.15 3 3 0 1 0 3 3 3.059 3.059 0 0 0 -.5-1.66l5.5-7.34v5.18a3 3 0 1 0 2 0v-2.2l1.99.02h.01a1 1 0 0 0 .01-2l-2.01-.02v-2.98h1.16a2.823 2.823 0 0 0 1.16 1.48 2.78 2.78 0 0 0 1.47.42 2.747 2.747 0 0 0 1.21-.28zm-5-.24a1 1 0 1 1 -1-1 1 1 0 0 1 1 1zm-5-18a1 1 0 1 1 -1-1 1 1 0 0 1 1 1zm-3 7a1 1 0 1 1 -1-1 1 1 0 0 1 1 1zm-1 12a1 1 0 1 1 -1-1 1 1 0 0 1 1 1zm21.49-14.89a1.029 1.029 0 0 0 -.89-.01l-5.93 2.96a.689.689 0 0 0 -.15.07l-1.38.69a.8.8 0 0 1 -.77-.04.776.776 0 0 1 -.37-.67.789.789 0 0 1 .44-.71l7.01-3.51a.977.977 0 0 0 .55-.89v-20a1 1 0 0 1 2 0v20a.977.977 0 0 0 .55.89l7.02 3.51a.788.788 0 0 1 .06 1.37.8.8 0 0 1 -.77.04zm9.51 8.89h.01l1.99-.02v2.02a11.771 11.771 0 0 0 -5 1.11v-6.5a2.737 2.737 0 0 0 3.83-1.61h1.17v2.98l-2.01.02a1.01 1.01 0 0 0 -.99 1.01.994.994 0 0 0 1 .99zm2 24a10 10 0 1 1 10-10 10.016 10.016 0 0 1 -10 10zm1.96-21.82a.584.584 0 0 0 .04-.18v-5l5.5 7.34c-.04.07-.08.15-.12.22a11.835 11.835 0 0 0 -5.42-2.38zm8.04 4.82a.833.833 0 0 1 -.32-.07c-.21-.28-.43-.56-.67-.83 0-.03-.01-.06-.01-.1a1 1 0 1 1 1 1zm4.53 9.02a4.91 4.91 0 0 1 -3.03 1.38 11.823 11.823 0 0 0 -.67-8.53 2.993 2.993 0 0 0 -.83-5.87 2.914 2.914 0 0 0 -.89.15l-1.61-2.15h2.5a1 1 0 0 0 0-2h-4l-3-4h3a1.01 1.01 0 0 0 .17-.03 3 3 0 1 0 0-1.94 1.01 1.01 0 0 0 -.17-.03h-3.06l2.24-3.13a2.76 2.76 0 0 0 .82.13 3 3 0 1 0 -3-3 2.938 2.938 0 0 0 .55 1.72l-1.03 1.43-2.97-1.98a1 1 0 0 0 -1.1 1.66l2.91 1.95-.87 1.22h-1.74a2.768 2.768 0 0 0 -1.29-1.39l-2.46-1.23v-8.38a3.009 3.009 0 0 1 3-3h.79a15.02 15.02 0 0 1 14.9 13.23l2.33 19.61a4.947 4.947 0 0 1 -1.49 4.18zm-6.53-22.02a1 1 0 1 1 1 1 1 1 0 0 1 -1-1zm-3-7a1 1 0 1 1 1 1 1 1 0 0 1 -1-1z" fill="#1e81ce"/><path d="m51 48a1.993 1.993 0 0 0 -1.722 1h-1.42a3.915 3.915 0 0 0 -.425-1.019l1.006-1.006a2.015 2.015 0 0 0 .51.074 2.006 2.006 0 1 0 -1.923-1.489l-1.007 1.007a3.915 3.915 0 0 0 -1.019-.425v-1.42a2 2 0 1 0 -2 0v1.42a3.915 3.915 0 0 0 -1.019.425l-1.006-1.007a2 2 0 0 0 -.509-1.923 2 2 0 1 0 -1.415 3.413 2.022 2.022 0 0 0 .511-.074l1.006 1.006a3.915 3.915 0 0 0 -.426 1.018h-1.42a2 2 0 1 0 0 2h1.42a3.915 3.915 0 0 0 .425 1.019l-1.005 1.006a2 2 0 1 0 1.412 1.415l1.007-1.007a3.915 3.915 0 0 0 1.019.425v1.42a2 2 0 1 0 2 0v-1.42a3.915 3.915 0 0 0 1.019-.425l1.006 1.007a2 2 0 0 0 .509 1.923 2 2 0 1 0 .9-3.339l-1.006-1.006a3.915 3.915 0 0 0 .43-1.018h1.42a2 2 0 1 0 1.722-3zm-7 4a2 2 0 1 1 2-2 2 2 0 0 1 -2 2z" fill="#1e81ce"/><path d="m47 8h1.184a2.746 2.746 0 0 0 .117.285l-.836.837a1 1 0 1 0 1.414 1.414l.836-.837a2.746 2.746 0 0 0 .285.117v1.184a1 1 0 0 0 2 0v-1.184a2.746 2.746 0 0 0 .285-.117l.836.837a1 1 0 1 0 1.414-1.414l-.835-.837a2.746 2.746 0 0 0 .116-.285h1.184a1 1 0 0 0 0-2h-1.184a2.746 2.746 0 0 0 -.117-.285l.836-.837a1 1 0 1 0 -1.414-1.414l-.836.837a2.746 2.746 0 0 0 -.285-.117v-1.184a1 1 0 0 0 -2 0v1.184a2.746 2.746 0 0 0 -.285.117l-.836-.837a1 1 0 1 0 -1.414 1.414l.836.837a2.746 2.746 0 0 0 -.117.285h-1.184a1 1 0 0 0 0 2zm5-1a1 1 0 1 1 -1-1 1 1 0 0 1 1 1z" fill="#1e81ce"/><path d="m9 8h1.184a2.746 2.746 0 0 0 .117.285l-.837.837a1 1 0 1 0 1.414 1.414l.837-.837a2.746 2.746 0 0 0 .285.117v1.184a1 1 0 0 0 2 0v-1.184a2.746 2.746 0 0 0 .285-.117l.837.837a1 1 0 1 0 1.414-1.414l-.836-.837a2.746 2.746 0 0 0 .116-.285h1.184a1 1 0 0 0 0-2h-1.184a2.746 2.746 0 0 0 -.117-.285l.837-.837a1 1 0 0 0 -1.414-1.414l-.837.837a2.746 2.746 0 0 0 -.285-.117v-1.184a1 1 0 0 0 -2 0v1.184a2.746 2.746 0 0 0 -.285.117l-.837-.837a1 1 0 1 0 -1.414 1.414l.837.837a2.746 2.746 0 0 0 -.117.285h-1.184a1 1 0 0 0 0 2zm5-1a1 1 0 1 1 -1-1 1 1 0 0 1 1 1z" fill="#1e81ce"/><path d="m30 56h-1.184a2.746 2.746 0 0 0 -.117-.285l.837-.837a1 1 0 0 0 -1.414-1.414l-.837.837a2.746 2.746 0 0 0 -.285-.117v-1.184a1 1 0 0 0 -2 0v1.184a2.746 2.746 0 0 0 -.285.117l-.837-.837a1 1 0 0 0 -1.414 1.414l.837.837a2.746 2.746 0 0 0 -.117.285h-1.184a1 1 0 0 0 0 2h1.184a2.746 2.746 0 0 0 .117.285l-.837.837a1 1 0 1 0 1.414 1.414l.837-.837a2.746 2.746 0 0 0 .285.117v1.184a1 1 0 0 0 2 0v-1.184a2.746 2.746 0 0 0 .285-.117l.837.837a1 1 0 0 0 1.414-1.414l-.837-.837a2.746 2.746 0 0 0 .117-.285h1.184a1 1 0 0 0 0-2zm-5 1a1 1 0 1 1 1 1 1 1 0 0 1 -1-1z" fill="#1e81ce"/></g></svg>